HIERARCHY
ROOT Hips
{
	OFFSET 0.000000 83.214638 0.000000
	CHANNELS 6 Xposition Yposition Zposition Xrotation Yrotation Zrotation
	JOINT Pelvis
	{
		OFFSET 0.000000 0.000000 0.000000
		CHANNELS 3 Xrotation Yrotation Zrotation
		JOINT LeftUpLeg
		{
			OFFSET 8.479700 -4.795502 -0.379100
			CHANNELS 3 Xrotation Yrotation Zrotation
			JOINT LeftLeg
			{
				OFFSET 0.024144 -32.555107 0.112900
				CHANNELS 3 Xrotation Yrotation Zrotation
				JOINT LeftFoot
				{
					OFFSET -0.024144 -32.638630 -3.012600
					CHANNELS 3 Xrotation Yrotation Zrotation
					JOINT LeftToeBase
					{
						OFFSET 0.970200 -13.225400 11.864200
						CHANNELS 3 Xrotation Yrotation Zrotation
						End Site
						{
							OFFSET 0.000000 12.319262 0.000000
						}
					}
					JOINT LFootTongue
					{
						OFFSET 1.142400 -1.059800 6.665200
						CHANNELS 3 Xrotation Yrotation Zrotation
						End Site
						{
							OFFSET 0.000000 12.319262 0.000000
						}
					}
				}
				JOINT LeftPantLeg
				{
					OFFSET 0.918482 -16.533964 -2.284700
					CHANNELS 3 Xrotation Yrotation Zrotation
					End Site
					{
						OFFSET 0.350399 24.744368 0.000000
					}
				}
			}
		}
		JOINT RightUpLeg
		{
			OFFSET -8.479700 -4.795502 -0.379100
			CHANNELS 3 Xrotation Yrotation Zrotation
			JOINT RightLeg
			{
				OFFSET -0.023144 -32.555092 0.112900
				CHANNELS 3 Xrotation Yrotation Zrotation
				JOINT RightFoot
				{
					OFFSET 0.023144 -32.638641 -3.012700
					CHANNELS 3 Xrotation Yrotation Zrotation
					JOINT RightToeBase
					{
						OFFSET -0.970200 -13.225400 11.864200
						CHANNELS 3 Xrotation Yrotation Zrotation
						End Site
						{
							OFFSET 0.000000 12.319244 0.000000
						}
					}
					JOINT RFootTongue
					{
						OFFSET -1.142200 -1.059800 6.665200
						CHANNELS 3 Xrotation Yrotation Zrotation
						End Site
						{
							OFFSET 0.000000 12.319243 0.000000
						}
					}
				}
				JOINT RightPantLeg
				{
					OFFSET -0.919482 -16.533978 -2.284800
					CHANNELS 3 Xrotation Yrotation Zrotation
					End Site
					{
						OFFSET -0.350400 24.744419 0.000000
					}
				}
			}
		}
	}
	JOINT Spine
	{
		OFFSET 0.000000 7.722000 1.166200
		CHANNELS 3 Xrotation Yrotation Zrotation
		JOINT Spine1
		{
			OFFSET 0.000000 12.024101 0.248800
			CHANNELS 3 Xrotation Yrotation Zrotation
			JOINT Spine2
			{
				OFFSET 0.000000 11.502998 -0.491200
				CHANNELS 3 Xrotation Yrotation Zrotation
				JOINT Neck
				{
					OFFSET 0.000000 18.430702 -3.123100
					CHANNELS 3 Xrotation Yrotation Zrotation
					JOINT Head
					{
						OFFSET 0.000000 9.051102 1.034000
						CHANNELS 3 Xrotation Yrotation Zrotation
						JOINT HairB
						{
							OFFSET 0.208400 24.786102 24.822300
							CHANNELS 3 Xrotation Yrotation Zrotation
							End Site
							{
								OFFSET 0.000000 32.263779 0.000000
							}
						}
						JOINT HairA
						{
							OFFSET -7.081100 24.428299 23.196600
							CHANNELS 3 Xrotation Yrotation Zrotation
							End Site
							{
								OFFSET 0.000000 32.263779 0.000000
							}
						}
						JOINT Hat
						{
							OFFSET 16.728800 15.048294 -15.439601
							CHANNELS 3 Xrotation Yrotation Zrotation
							End Site
							{
								OFFSET 0.000000 32.263779 0.000000
							}
						}
					}
				}
				JOINT LeftShoulder
				{
					OFFSET 6.197800 13.665199 -4.064700
					CHANNELS 3 Xrotation Yrotation Zrotation
					JOINT LeftArm
					{
						OFFSET 7.778100 -0.187103 -1.709300
						CHANNELS 3 Xrotation Yrotation Zrotation
						JOINT LeftForeArm
						{
							OFFSET 22.049376 0.000000 0.000000
							CHANNELS 3 Xrotation Yrotation Zrotation
							JOINT LeftHand
							{
								OFFSET 23.009392 0.000000 0.000000
								CHANNELS 3 Xrotation Yrotation Zrotation
								JOINT LeftHandThumb1
								{
									OFFSET 3.507191 -2.063065 3.133727
									CHANNELS 3 Xrotation Yrotation Zrotation
									JOINT LeftHandThumb2
									{
										OFFSET 3.101337 -1.790558 1.790558
										CHANNELS 3 Xrotation Yrotation Zrotation
										JOINT LeftHandThumb3
										{
											OFFSET 3.058640 -1.765907 1.765906
											CHANNELS 3 Xrotation Yrotation Zrotation
											End Site
											{
												OFFSET -0.415260 3.926476 -0.049563
											}
										}
									}
								}
								JOINT LeftHandIndex1
								{
									OFFSET 11.334419 -0.901459 3.706815
									CHANNELS 3 Xrotation Yrotation Zrotation
									JOINT LeftHandIndex2
									{
										OFFSET 3.283112 0.000000 0.000000
										CHANNELS 3 Xrotation Yrotation Zrotation
										JOINT LeftHandIndex3
										{
											OFFSET 3.323853 0.000000 0.000000
											CHANNELS 3 Xrotation Yrotation Zrotation
											End Site
											{
												OFFSET -1.135597 3.097809 0.402452
											}
										}
									}
								}
								JOINT LeftHandMiddle1
								{
									OFFSET 11.335861 0.000000 0.000000
									CHANNELS 3 Xrotation Yrotation Zrotation
									JOINT LeftHandMiddle2
									{
										OFFSET 3.410492 0.000000 0.000000
										CHANNELS 3 Xrotation Yrotation Zrotation
										JOINT LeftHandMiddle3
										{
											OFFSET 3.312172 0.000000 0.000000
											CHANNELS 3 Xrotation Yrotation Zrotation
											End Site
											{
												OFFSET -1.150200 3.080154 0.400270
											}
										}
									}
								}
								JOINT LeftHandRing1
								{
									OFFSET 11.514786 -0.013176 -3.003090
									CHANNELS 3 Xrotation Yrotation Zrotation
									JOINT LeftHandRing2
									{
										OFFSET 3.053307 0.000000 0.000000
										CHANNELS 3 Xrotation Yrotation Zrotation
										JOINT LeftHandRing3
										{
											OFFSET 3.295807 0.000000 0.000000
											CHANNELS 3 Xrotation Yrotation Zrotation
											End Site
											{
												OFFSET -1.281006 3.013344 0.375733
											}
										}
									}
								}
								JOINT LeftHandPinky1
								{
									OFFSET 10.518692 -0.960396 -5.730441
									CHANNELS 3 Xrotation Yrotation Zrotation
									JOINT LeftHandPinky2
									{
										OFFSET 2.861649 0.000000 0.000000
										CHANNELS 3 Xrotation Yrotation Zrotation
										JOINT LeftHandPinky3
										{
											OFFSET 2.863380 0.000000 0.000000
											CHANNELS 3 Xrotation Yrotation Zrotation
											End Site
											{
												OFFSET -0.843597 2.711159 0.369971
											}
										}
									}
								}
							}
							JOINT LSleeve
							{
								OFFSET 6.676277 -0.344902 -1.011730
								CHANNELS 3 Xrotation Yrotation Zrotation
								End Site
								{
									OFFSET 0.000000 14.885353 0.000000
								}
							}
						}
					}
				}
				JOINT RightShoulder
				{
					OFFSET -6.197800 13.665199 -4.064700
					CHANNELS 3 Xrotation Yrotation Zrotation
					JOINT RightArm
					{
						OFFSET -7.778100 -0.187103 -1.709300
						CHANNELS 3 Xrotation Yrotation Zrotation
						JOINT RightForeArm
						{
							OFFSET -22.049376 0.000000 0.000000
							CHANNELS 3 Xrotation Yrotation Zrotation
							JOINT RightHand
							{
								OFFSET -23.009392 0.000000 0.000000
								CHANNELS 3 Xrotation Yrotation Zrotation
								JOINT RightHandThumb1
								{
									OFFSET -3.507191 -2.063065 3.133727
									CHANNELS 3 Xrotation Yrotation Zrotation
									JOINT RightHandThumb2
									{
										OFFSET -3.101337 -1.790558 1.790558
										CHANNELS 3 Xrotation Yrotation Zrotation
										JOINT RightHandThumb3
										{
											OFFSET -3.058640 -1.765907 1.765906
											CHANNELS 3 Xrotation Yrotation Zrotation
											End Site
											{
												OFFSET 0.415260 3.926476 -0.049563
											}
										}
									}
								}
								JOINT RightHandIndex1
								{
									OFFSET -11.334419 -0.901459 3.706815
									CHANNELS 3 Xrotation Yrotation Zrotation
									JOINT RightHandIndex2
									{
										OFFSET -3.283112 0.000000 0.000000
										CHANNELS 3 Xrotation Yrotation Zrotation
										JOINT RightHandIndex3
										{
											OFFSET -3.323853 0.000000 0.000000
											CHANNELS 3 Xrotation Yrotation Zrotation
											End Site
											{
												OFFSET 1.135597 3.097809 0.402452
											}
										}
									}
								}
								JOINT RightHandMiddle1
								{
									OFFSET -11.335861 0.000000 0.000000
									CHANNELS 3 Xrotation Yrotation Zrotation
									JOINT RightHandMiddle2
									{
										OFFSET -3.410492 0.000000 0.000000
										CHANNELS 3 Xrotation Yrotation Zrotation
										JOINT RightHandMiddle3
										{
											OFFSET -3.312172 0.000000 0.000000
											CHANNELS 3 Xrotation Yrotation Zrotation
											End Site
											{
												OFFSET 1.150200 3.080154 0.400270
											}
										}
									}
								}
								JOINT RightHandRing1
								{
									OFFSET -11.514786 -0.013176 -3.003090
									CHANNELS 3 Xrotation Yrotation Zrotation
									JOINT RightHandRing2
									{
										OFFSET -3.053307 0.000000 0.000000
										CHANNELS 3 Xrotation Yrotation Zrotation
										JOINT RightHandRing3
										{
											OFFSET -3.295807 0.000000 0.000000
											CHANNELS 3 Xrotation Yrotation Zrotation
											End Site
											{
												OFFSET 1.281006 3.013344 0.375733
											}
										}
									}
								}
								JOINT RightHandPinky1
								{
									OFFSET -10.518692 -0.960396 -5.730441
									CHANNELS 3 Xrotation Yrotation Zrotation
									JOINT RightHandPinky2
									{
										OFFSET -2.861649 0.000000 0.000000
										CHANNELS 3 Xrotation Yrotation Zrotation
										JOINT RightHandPinky3
										{
											OFFSET -2.863380 0.000000 0.000000
											CHANNELS 3 Xrotation Yrotation Zrotation
											End Site
											{
												OFFSET 0.843597 2.711159 0.369971
											}
										}
									}
								}
							}
							JOINT RSleeve
							{
								OFFSET -6.676277 -0.344902 -1.011730
								CHANNELS 3 Xrotation Yrotation Zrotation
								End Site
								{
									OFFSET 0.000000 14.885353 0.000000
								}
							}
						}
					}
				}
				JOINT Backpack
				{
					OFFSET 0.000000 -2.471497 36.677502
					CHANNELS 3 Xrotation Yrotation Zrotation
					End Site
					{
						OFFSET 0.000000 20.427315 0.000000
					}
				}
				JOINT Hood
				{
					OFFSET 0.000000 18.754097 -10.431000
					CHANNELS 3 Xrotation Yrotation Zrotation
					JOINT Hood1
					{
						OFFSET 0.000000 -5.011002 -7.685901
						CHANNELS 3 Xrotation Yrotation Zrotation
						End Site
						{
							OFFSET 0.000000 9.175140 0.000000
						}
					}
				}
				JOINT LHoodieString
				{
					OFFSET 5.250500 16.397697 3.089900
					CHANNELS 3 Xrotation Yrotation Zrotation
					JOINT LHoodieString1
					{
						OFFSET 0.257700 -6.364304 3.694600
						CHANNELS 3 Xrotation Yrotation Zrotation
						JOINT LHoodieString2
						{
							OFFSET 0.000000 -9.643799 2.679100
							CHANNELS 3 Xrotation Yrotation Zrotation
							End Site
							{
								OFFSET 0.000000 10.009018 0.000000
							}
						}
					}
				}
				JOINT RHoodieString
				{
					OFFSET -5.250500 16.397697 3.089900
					CHANNELS 3 Xrotation Yrotation Zrotation
					JOINT RHoodieString1
					{
						OFFSET -0.257700 -6.364304 3.694600
						CHANNELS 3 Xrotation Yrotation Zrotation
						JOINT RHoodieString2
						{
							OFFSET 0.000000 -9.643799 2.679100
							CHANNELS 3 Xrotation Yrotation Zrotation
							End Site
							{
								OFFSET 0.000000 10.009018 0.000000
							}
						}
					}
				}
			}
			JOINT LBackpack_Strap
			{
				OFFSET 15.223200 -7.719803 -6.610900
				CHANNELS 3 Xrotation Yrotation Zrotation
				End Site
				{
					OFFSET 0.000000 16.040596 0.000000
				}
			}
			JOINT RBackpack_Strap
			{
				OFFSET -15.223000 -7.719803 -6.610900
				CHANNELS 3 Xrotation Yrotation Zrotation
				End Site
				{
					OFFSET 0.000000 16.040596 0.000000
				}
			}
		}
	}
	JOINT BoyFacialAnim_Joint
	{
		OFFSET 1.000000 -82.208099 -1.550900
		CHANNELS 3 Xrotation Yrotation Zrotation
		End Site
		{
			OFFSET 0.000000 30.012791 0.000000
		}
	}
}
MOTION
Frames: 4
Frame Time: 0.033333
-0.805063 80.780441 0.593233 0.713893 0.106513 -1.675794 -0.000000 -0.000000 -0.000000 -34.420148 -6.077437 6.780216 57.577327 -3.827920 -0.098306 9.798132 -0.179948 -2.531832 0.000001 0.000000 0.000000 0.000001 0.000000 0.000001 -0.000000 -0.000000 0.000000 -17.832881 -2.794119 8.746892 31.240268 -10.010930 -0.884771 -14.565148 -11.156598 -6.306455 0.000000 0.000001 -0.000000 0.000000 0.000001 -0.000000 0.000001 -0.000001 0.000000 2.360392 1.690982 1.238841 4.561479 3.074087 -1.119871 4.564209 3.075891 -1.097912 -6.141551 -1.403617 0.607284 -16.902737 -5.333583 -3.312228 0.000001 -0.000000 0.000000 0.000001 -0.000000 0.000000 0.000001 -0.000000 0.000000 1.752453 -4.569645 -9.941671 -26.186177 0.604548 -59.299402 -0.000001 -0.000005 -0.000001 15.298806 -3.835822 -16.691140 -1.658724 14.262935 1.468026 4.869919 19.502640 1.591404 -0.000000 0.000001 -0.000000 0.094980 1.142043 -9.508227 0.039381 0.736876 -6.117963 0.000001 0.000000 -0.000000 0.094665 1.140141 -9.492243 0.039587 0.738794 -6.133950 0.000001 0.000000 -0.000001 0.094981 1.142042 -9.508244 0.039380 0.736873 -6.117931 -0.000001 0.000002 -0.000002 0.749003 5.143421 -9.033677 0.027934 -3.317757 -6.625817 0.000001 0.000001 -0.000000 -0.000000 0.000000 -0.000001 2.895100 11.356930 9.607776 -31.472456 0.300884 60.483422 0.000003 15.069907 -0.000020 36.143309 -4.145814 15.666413 -1.849251 -3.581803 -6.586166 21.549044 -12.846074 3.930168 0.000001 0.000001 -0.000000 0.242926 -1.825370 15.159601 0.355454 -2.198707 18.363537 -0.000001 -0.000000 0.000003 0.242927 -1.825364 15.159610 0.355446 -2.198715 18.363532 0.000004 0.000001 -0.000000 0.242933 -1.825361 15.159605 0.355445 -2.198702 18.363542 -0.000002 0.000001 0.000001 0.242927 -1.825358 15.159610 0.355439 -2.198726 18.363517 -0.000002 0.000002 -0.000001 0.000002 -0.000001 -0.000001 0.000001 -0.000000 -0.000000 0.000001 -0.000000 -0.000000 0.000001 -0.000000 -0.000000 0.000001 -0.000000 -0.000000 0.000001 -0.000000 -0.000000 0.000001 -0.000001 -0.000000 0.000001 -0.000000 -0.000000 0.000001 -0.000000 -0.000000 0.000001 -0.000001 -0.000000 0.000000 -0.000000 -0.000000 0.000000 -0.000000 -0.000000 -0.000000 -0.000000 -0.000000 
-0.988766 81.256241 2.877611 0.584222 -0.588470 -0.831650 -0.000000 0.000000 0.000000 -34.963749 -5.536707 5.680337 49.016289 -2.938857 -0.065075 7.783680 -0.069713 -1.432789 0.000001 0.000000 -0.000000 0.000001 0.000000 0.000000 0.000002 -0.000000 0.000000 -14.698577 -2.630209 7.857570 29.331537 -9.888137 -0.830143 -14.907853 -10.180516 -5.716701 0.000000 -0.000002 -0.000000 0.000000 -0.000002 -0.000000 -0.000001 0.000001 -0.000001 2.415098 2.050214 0.918271 4.738503 3.994562 -1.792378 4.735728 4.007052 -1.766328 -6.190159 -1.506464 0.284799 -17.271209 -6.205614 -3.567631 -0.000001 -0.000000 0.000000 -0.000001 -0.000000 0.000000 -0.000001 -0.000000 0.000000 1.544569 -3.200660 -9.883756 -24.637845 0.607712 -58.510242 0.000005 -0.000010 0.000020 15.098560 -3.302764 -18.132086 -1.723432 13.080302 1.652186 4.865309 19.441042 1.587314 0.000001 0.000000 -0.000001 0.056110 0.879022 -7.304184 0.025497 0.593235 -4.922002 0.000001 0.000000 -0.000002 0.055866 0.877108 -7.288219 0.025662 0.595155 -4.937984 0.000003 -0.000003 0.000002 0.056110 0.879018 -7.304200 0.025495 0.593235 -4.921991 0.000000 0.000001 -0.000000 0.555065 4.902587 -6.818950 0.012755 -3.461273 -5.430893 0.000001 0.000001 -0.000000 -0.000000 -0.000001 0.000004 3.065040 12.592719 8.647556 -33.971647 2.337187 59.420419 -0.000010 15.529907 0.000002 34.987808 -2.519571 16.287228 -1.849251 -3.581804 -6.586168 21.615440 -13.235529 3.910489 0.000001 0.000000 -0.000001 0.279853 -1.956531 16.278784 0.413349 -2.365918 19.817760 0.000000 -0.000001 0.000002 0.279848 -1.956526 16.278795 0.413357 -2.365921 19.817751 0.000005 0.000001 0.000002 0.279849 -1.956521 16.278788 0.413357 -2.365912 19.817763 -0.000003 -0.000001 0.000000 0.279849 -1.956521 16.278784 0.413356 -2.365918 19.817746 0.000001 0.000001 0.000000 0.000002 0.000001 -0.000000 -0.000000 -0.000000 -0.000000 -0.000000 -0.000000 -0.000000 -0.000000 -0.000000 -0.000000 -0.000000 -0.000000 -0.000000 -0.000000 -0.000000 0.000000 -0.000000 0.000000 -0.000000 -0.000000 -0.000000 -0.000000 -0.000000 -0.000000 0.000000 -0.000000 0.000000 -0.000000 0.000000 -0.000000 -0.000000 0.000000 -0.000000 -0.000000 -0.000000 0.000000 0.000000 
-1.126487 81.612038 5.101208 0.711967 -1.232484 -0.457360 -0.000000 0.000000 -0.000000 -34.792229 -4.765599 5.119547 38.904303 -1.655433 -0.016714 6.293178 -0.050200 -0.385790 0.000000 -0.000001 -0.000001 0.000000 -0.000001 -0.000001 0.000000 -0.000001 -0.000000 -11.772374 -2.191687 7.506499 27.058370 -9.826556 -0.808761 -15.001331 -9.632350 -5.140635 0.000000 -0.000002 -0.000000 0.000000 -0.000002 -0.000000 -0.000001 0.000002 0.000000 2.389509 2.380734 0.869186 4.809403 4.717853 -2.202932 4.798205 4.738478 -2.177748 -6.338270 -1.557838 0.012537 -17.549198 -6.778695 -3.746763 -0.000001 -0.000000 -0.000000 -0.000001 -0.000000 -0.000000 -0.000001 -0.000000 -0.000000 1.343813 -1.880349 -9.783775 -23.103105 0.795667 -58.022457 0.000002 -0.000003 -0.000008 15.955969 -2.805160 -18.242027 -1.790048 11.770843 1.768381 4.865537 19.443920 1.587473 -0.000001 0.000003 -0.000001 0.026063 0.599768 -4.976314 0.014596 0.449014 -3.723400 -0.000000 -0.000001 -0.000002 0.025896 0.597846 -4.960348 0.014721 0.450941 -3.739380 -0.000001 -0.000000 -0.000005 0.026065 0.599765 -4.976332 0.014591 0.449017 -3.723394 -0.000001 0.000000 0.000001 0.360580 4.640274 -4.481214 0.000545 -3.605387 -4.233177 -0.000001 0.000000 -0.000002 0.000001 0.000000 -0.000000 3.199342 13.580994 7.740688 -35.972571 4.294811 58.368263 0.000004 16.688217 -0.000011 33.658458 -1.819085 16.880422 -1.849250 -3.581800 -6.586171 21.682798 -13.630617 3.890995 0.000000 0.000001 -0.000000 0.318340 -2.083748 17.370805 0.482200 -2.548681 21.423011 0.000003 -0.000002 0.000005 0.318349 -2.083735 17.370809 0.482190 -2.548682 21.423016 0.000003 0.000001 -0.000000 0.318350 -2.083738 17.370807 0.482185 -2.548673 21.423020 -0.000002 0.000002 0.000002 0.318337 -2.083743 17.370798 0.482195 -2.548674 21.423020 -0.000001 -0.000000 0.000002 0.000002 0.000000 -0.000000 0.000000 -0.000000 -0.000000 0.000000 -0.000000 -0.000000 0.000000 -0.000000 -0.000000 0.000000 -0.000000 -0.000000 0.000000 -0.000000 -0.000000 -0.000000 -0.000000 -0.000000 0.000000 -0.000000 -0.000000 0.000000 -0.000000 -0.000000 -0.000000 -0.000000 -0.000000 0.000000 0.000000 0.000000 0.000000 0.000000 0.000000 -0.000000 0.000000 -0.000000 
-1.223860 81.827560 7.343078 1.175729 -1.835807 -0.458513 0.000000 -0.000000 -0.000000 -34.185370 -3.737371 5.054372 27.750341 0.556141 0.071704 5.340656 -0.263938 -0.014208 -0.000000 -0.000000 -0.000000 -0.000000 -0.000000 0.000000 -0.000000 0.000000 -0.000000 -9.127333 -1.503333 7.589249 24.514678 -9.821629 -0.814461 -14.885284 -9.456718 -4.698662 -0.000000 0.000000 -0.000000 -0.000000 0.000000 -0.000000 0.000003 0.000000 -0.000000 2.260584 2.694839 0.941515 4.714094 5.299009 -2.436501 4.694324 5.323317 -2.416671 -6.542681 -1.574158 -0.203143 -17.822305 -7.102225 -3.934333 0.000000 0.000000 -0.000000 0.000000 0.000000 -0.000000 0.000000 0.000000 -0.000000 1.158519 -0.670745 -9.659492 -21.695751 1.312891 -57.815857 0.000000 0.000001 -0.000020 16.893553 -1.900589 -17.479456 -1.859619 10.345799 1.824077 4.870112 19.505026 1.591533 -0.000000 0.000004 0.000000 0.006760 0.305629 -2.533399 0.006686 0.304021 -2.520070 0.000000 -0.000001 0.000002 0.006675 0.303701 -2.517434 0.006772 0.305950 -2.536058 0.000001 -0.000001 0.000002 0.006760 0.305628 -2.533409 0.006687 0.304018 -2.520047 -0.000000 -0.000000 -0.000000 0.168258 4.356708 -2.029507 -0.008671 -3.750307 -3.030480 -0.000001 0.000000 -0.000000 0.000002 0.000001 0.000001 3.296130 14.311505 6.994706 -37.512830 6.112983 57.381840 0.000005 18.096467 -0.000007 32.596596 -0.770750 16.918916 -1.849253 -3.581803 -6.586167 21.751004 -14.031125 3.871653 -0.000001 -0.000001 0.000002 0.358362 -2.207528 18.439772 0.562595 -2.744580 23.163997 -0.000001 0.000002 0.000004 0.358374 -2.207516 18.439784 0.562578 -2.744585 23.164004 0.000002 -0.000001 -0.000000 0.358365 -2.207519 18.439776 0.562587 -2.744574 23.164015 0.000001 0.000000 0.000004 0.358372 -2.207525 18.439774 0.562582 -2.744569 23.163996 -0.000000 -0.000001 -0.000002 0.000001 -0.000001 -0.000000 0.000000 -0.000000 -0.000000 0.000000 -0.000000 -0.000000 0.000000 -0.000000 -0.000000 0.000000 -0.000000 -0.000000 0.000000 -0.000000 -0.000000 0.000000 -0.000000 0.000000 0.000000 -0.000000 -0.000000 0.000000 -0.000000 -0.000000 0.000000 -0.000000 0.000000 0.000001 0.000001 -0.000000 0.000001 0.000001 -0.000000 0.000000 -0.000000 -0.000000 
